PathFileType	4	(X/Y/Z)	/Users/itak/Documents/Research/Walk-IL/dataset/trc/00411_00012.trc
DataRate	CameraRate	NumFrames	NumMarkers	Units	OrigDataRate	OrigDataStartFrame	OrigNumFrames
100.000000	100.000000	4	53	mm	100.000000	0	608
Frame#	Time	RPSI			LPSI			L3			STRN			T10			C7			CLAV			RBAK			LBAK			LSHO			LUPA			LAEL			LAOL			LWTS			LWPS			LFRA			LIFD			LHPS			RSHO			RUPA			RAEL			RAOL			RWTS			RWPS			RFRA			RIFD			RHPS			RBHD			LFHD			RFHD			LBHD			LHIP			RHIP			RASI			LASI			LKNE			LTHI			LANK			LTIP			LTOE			LMT5			LHEE			RKNE			RTHI			RANK			RTIP			RTOE			RMT1			RMT5			RHEE			LHTS			RHTS			LMT1			
		X1	Y1	Z1	X2	Y2	Z2	X3	Y3	Z3	X4	Y4	Z4	X5	Y5	Z5	X6	Y6	Z6	X7	Y7	Z7	X8	Y8	Z8	X9	Y9	Z9	X10	Y10	Z10	X11	Y11	Z11	X12	Y12	Z12	X13	Y13	Z13	X14	Y14	Z14	X15	Y15	Z15	X16	Y16	Z16	X17	Y17	Z17	X18	Y18	Z18	X19	Y19	Z19	X20	Y20	Z20	X21	Y21	Z21	X22	Y22	Z22	X23	Y23	Z23	X24	Y24	Z24	X25	Y25	Z25	X26	Y26	Z26	X27	Y27	Z27	X28	Y28	Z28	X29	Y29	Z29	X30	Y30	Z30	X31	Y31	Z31	X32	Y32	Z32	X33	Y33	Z33	X34	Y34	Z34	X35	Y35	Z35	X36	Y36	Z36	X37	Y37	Z37	X38	Y38	Z38	X39	Y39	Z39	X40	Y40	Z40	X41	Y41	Z41	X42	Y42	Z42	X43	Y43	Z43	X44	Y44	Z44	X45	Y45	Z45	X46	Y46	Z46	X47	Y47	Z47	X48	Y48	Z48	X49	Y49	Z49	X50	Y50	Z50	X51	Y51	Z51	X52	Y52	Z52	X53	Y53	Z53	

1	0	-877.8302612304688	993.252685546875	648.84716796875	-875.3761596679688	985.183349609375	518.1580810546875	-876.3426513671875	1061.4228515625	584.818603515625	-638.0352783203125	1213.819458007812	602.9373168945312	-883.3365478515625	1165.272583007812	581.0369262695312	-846.0975952148438	1414.255493164062	574.5521240234375	-690.4591674804688	1333.176513671875	597.0928344726562	-894.065185546875	1267.556396484375	638.7971801757812	-847.4053955078125	1377.1474609375	468.2937622070312	-753.156005859375	1390.841552734375	428.9974975585938	-761.1524658203125	1273.930297851562	355.6477966308594	-726.3026733398438	1075.997192382812	341.4627685546875	-796.3177490234375	1054.127685546875	383.3541564941406	-645.8347778320312	866.0304565429688	421.757080078125	-669.074951171875	849.7283935546875	344.0124206542969	-702.1511840820312	972.0299682617188	340.7342834472656	-637.2936401367188	686.3543090820312	425.3341674804688	-655.2387084960938	765.0927124023438	361.1618957519531	-800.8353881835938	1391.028198242188	739.5799560546875	-815.4590454101562	1325.136840820312	798.1825561523438	-797.0847778320312	1061.2177734375	834.7892456054688	-820.77001953125	1053.098266601562	744.7554931640625	-666.6168823242188	849.2627563476562	792.5999755859375	-702.15771484375	835.9969482421875	854.9984130859375	-767.755126953125	996.4701538085938	847.854736328125	-660.9132080078125	677.0428466796875	792.458251953125	-693.5725708007812	747.7461547851562	854.2921142578125	-820.3218994140625	1600.674926757812	666.1928100585938	-666.0042114257812	1609.800659179688	539.7850952148438	-687.598388671875	1615.50830078125	660.4866943359375	-808.8865356445312	1590.077880859375	502.3250732421875	-780.5052490234375	970.5511474609375	409.4055480957031	-800.0538940429688	969.204833984375	768.173583984375	-664.7002563476562	973.380859375	718.3677978515625	-669.993896484375	967.0397338867188	455.4642028808594	-748.781982421875	476.0071105957031	429.0835876464844	-752.1646118164062	618.7294311523438	418.5071105957031	-840.5990600585938	39.85561752319336	467.891357421875	-799.1610717773438	245.8602905273438	435.7838134765625	-629.55712890625	45.10381698608398	540.1386108398438	-711.674560546875	40.36829376220703	460.8809509277344	-879.3125610351562	39.01175689697266	524.33837890625	-765.3881225585938	477.6237487792969	752.449951171875	-721.7145385742188	741.1909790039062	771.42333984375	-815.056640625	55.62909317016602	721.5480346679688	-758.3118286132812	351.7525634765625	740.112060546875	-630.6101684570312	40.21751403808594	670.3676147460938	-705.2074584960938	44.4976806640625	635.6185302734375	-731.3596801757812	45.67878723144531	732.7738647460938	-884.3525390625	43.94415664672852	663.6278076171875	nan	nan	nan	nan	nan	nan	nan	nan	nan	
2	0.01	-877.8577880859375	993.250244140625	648.85888671875	-875.3824462890625	985.180908203125	518.170166015625	-876.354248046875	1061.418701171875	584.8422241210938	-638.0789794921875	1213.825073242188	602.960693359375	-883.3414916992188	1165.266357421875	581.0537719726562	-846.1670532226562	1414.260864257812	574.6049194335938	-690.47705078125	1333.18115234375	597.1100463867188	-894.079345703125	1267.553955078125	638.818603515625	-847.4296875	1377.152954101562	468.3069458007812	-753.2127075195312	1390.847534179688	429.0139465332031	-761.172607421875	1273.937744140625	355.659423828125	-726.3111572265625	1076	341.4644775390625	-796.3327026367188	1054.134521484375	383.3618469238281	-645.853515625	866.0325317382812	421.7607116699219	-669.0820922851562	849.7357177734375	344.0234680175781	-702.154541015625	972.0386962890625	340.7416687011719	-637.29296875	686.360595703125	425.3543701171875	-655.1375122070312	765.0389404296875	361.1041564941406	-800.9344482421875	1391.040771484375	739.6228637695312	-815.5546264648438	1325.1328125	798.216796875	-797.0670776367188	1061.218994140625	834.8006591796875	-820.7838134765625	1053.10400390625	744.7730712890625	-666.5911254882812	849.2716674804688	792.5765991210938	-702.1387329101562	836.0032348632812	854.9930419921875	-767.74169921875	996.4694213867188	847.851806640625	-660.8792724609375	677.03759765625	792.47119140625	-693.5602416992188	747.7495727539062	854.2730102539062	-820.371337890625	1600.655639648438	666.2401123046875	-666.0767211914062	1609.825561523438	539.8422241210938	-687.6375732421875	1615.484375	660.5330200195312	-808.9380493164062	1590.102416992188	502.3799438476562	-780.5447998046875	970.5519409179688	409.4189758300781	-800.0725708007812	969.2156372070312	768.191162109375	-664.69775390625	973.3812866210938	718.3711547851562	-670.003173828125	967.0499267578125	455.4686279296875	-748.7698974609375	476.01123046875	429.0958557128906	-752.17333984375	618.7335815429688	418.5168151855469	-840.5523071289062	39.83127212524414	467.917724609375	-799.1663818359375	245.8624420166016	435.7854614257812	-629.5515747070312	45.1041259765625	540.139892578125	-711.6696166992188	40.36906433105469	460.8775024414062	-879.3118896484375	39.03104782104492	524.3491821289062	-765.376220703125	477.6253662109375	752.4551391601562	-721.7410888671875	741.2008056640625	771.4567260742188	-815.0577392578125	55.63051223754883	721.5474853515625	-758.3096313476562	351.7464294433594	740.1115112304688	-630.6419067382812	40.21157836914062	670.364013671875	-705.1995239257812	44.50149917602539	635.6195068359375	-731.3558349609375	45.67882919311523	732.7745361328125	-884.3526000976562	43.94331359863281	663.6273803710938	-618.39990234375	770.2906494140625	412.9239501953125	nan	nan	nan	nan	nan	nan	
3	0.02	-877.8875122070312	993.245849609375	648.8748779296875	-875.3922729492188	985.180419921875	518.1826782226562	-876.3692016601562	1061.41455078125	584.8722534179688	-638.1377563476562	1213.831665039062	602.989501953125	-883.347900390625	1165.258178710938	581.07373046875	-846.2539672851562	1414.2646484375	574.6727294921875	-690.50048828125	1333.188110351562	597.1343383789062	-894.0993041992188	1267.551391601562	638.8485717773438	-847.47265625	1377.158569335938	468.3345642089844	-753.283935546875	1390.851928710938	429.036865234375	-761.2029418945312	1273.945068359375	355.6781311035156	-726.3258666992188	1076.002807617188	341.4694213867188	-796.3556518554688	1054.13818359375	383.373291015625	-645.8785400390625	866.029541015625	421.7661743164062	-669.09130859375	849.7430419921875	344.0396118164062	-702.1598510742188	972.0472412109375	340.7531127929688	-637.2908935546875	686.366943359375	425.3778991699219	-655.016845703125	764.9856567382812	361.047607421875	-801.04443359375	1391.055908203125	739.6739501953125	-815.656494140625	1325.128662109375	798.2581176757812	-797.0470581054688	1061.222045898438	834.8178100585938	-820.7987060546875	1053.112182617188	744.7974853515625	-666.5633544921875	849.2819213867188	792.548095703125	-702.1185302734375	836.0101318359375	854.9848022460938	-767.7293090820312	996.46875	847.8513793945312	-660.8527221679688	677.0176391601562	792.4861450195312	-693.5436401367188	747.7545166015625	854.2421875	-820.4363403320312	1600.629150390625	666.3107299804688	-666.16357421875	1609.855712890625	539.9193725585938	-687.6884155273438	1615.454711914062	660.6029663085938	-808.99853515625	1590.135009765625	502.4556274414062	-780.5904541015625	970.552978515625	409.435302734375	-800.099365234375	969.2310180664062	768.217041015625	-664.6956787109375	973.3817138671875	718.3765869140625	-670.0158081054688	967.0610961914062	455.4757995605469	-748.7575073242188	476.0155639648438	429.1109313964844	-752.1874389648438	618.7382202148438	418.52783203125	-840.5138549804688	39.81111526489258	467.9399108886719	-799.1766967773438	245.8649291992188	435.7862548828125	-629.546142578125	45.10432434082031	540.1411743164062	-711.6663208007812	40.37065887451172	460.8776245117188	-879.3081665039062	39.05689239501953	524.3627319335938	-765.363525390625	477.6270141601562	752.463134765625	-721.7700805664062	741.2118530273438	771.493896484375	-815.0587768554688	55.63171005249023	721.5470581054688	-758.305908203125	351.740234375	740.1127319335938	-630.6735229492188	40.20605087280273	670.3600463867188	-705.1918334960938	44.50522613525391	635.6203002929688	-731.3521728515625	45.67881774902344	732.7750244140625	-884.35107421875	43.94034957885742	663.6260986328125	-618.3970947265625	770.3015747070312	412.9275512695312	-641.0255126953125	745.1531372070312	810.2885131835938	-710.2197875976562	44.46311187744141	566.9852905273438	
4	0.03	-877.9173583984375	993.240234375	648.8950805664062	-875.405029296875	985.1824951171875	518.1949462890625	-876.3861694335938	1061.410766601562	584.9070434570312	-638.2108154296875	1213.838500976562	603.0223388671875	-883.3566284179688	1165.24853515625	581.0947875976562	-846.3549194335938	1414.265258789062	574.7537231445312	-690.5289306640625	1333.197875976562	597.1661987304688	-894.1257934570312	1267.5498046875	638.8881225585938	-847.5363159179688	1377.163818359375	468.3788757324219	-753.3662719726562	1390.853515625	429.06640625	-761.2448120117188	1273.951171875	355.7049560546875	-726.3479614257812	1076.005004882812	341.4787902832031	-796.3865966796875	1054.13671875	383.3894958496094	-645.9088134765625	866.0203247070312	421.7735290527344	-669.1026611328125	849.7494506835938	344.0610961914062	-702.1673583984375	972.054443359375	340.7693481445312	-637.2874755859375	686.372314453125	425.4024963378906	-654.8881225585938	764.9398193359375	361.001220703125	-801.1553955078125	1391.072631835938	739.7297973632812	-815.7542114257812	1325.125244140625	798.3046875	-797.0261840820312	1061.226196289062	834.8416137695312	-820.8134155273438	1053.123291015625	744.8284301757812	-666.5360107421875	849.2924194335938	792.5159912109375	-702.0987548828125	836.0159912109375	854.9736938476562	-767.7213745117188	996.4681396484375	847.8555297851562	-660.8433227539062	676.976806640625	792.5010986328125	-693.5224609375	747.7593994140625	854.1981811523438	-820.515380859375	1600.59521484375	666.406494140625	-666.2591552734375	1609.889282226562	540.0167846679688	-687.7498168945312	1615.420654296875	660.6998291015625	-809.0634765625	1590.175170898438	502.5523681640625	-780.6383056640625	970.5540771484375	409.4537658691406	-800.1349487304688	969.2514038085938	768.2523193359375	-664.695068359375	973.3819580078125	718.384521484375	-670.0310668945312	967.0718994140625	455.4860534667969	-748.7459106445312	476.0198364257812	429.1281127929688	-752.206787109375	618.7429809570312	418.5392150878906	-840.491455078125	39.79924774169922	467.9535827636719	-799.1915893554688	245.8674468994141	435.7858581542969	-629.5411987304688	45.10437774658203	540.1423950195312	-711.6652221679688	40.37322616577148	460.8818969726562	-879.3011474609375	39.08699417114258	524.3775024414062	-765.3518676757812	477.6282958984375	752.47412109375	-721.7984619140625	741.2224731445312	771.531494140625	-815.059814453125	55.63247680664062	721.546875	-758.3006591796875	351.7346801757812	740.1165161132812	-630.7006225585938	40.20172882080078	670.356201171875	-705.1857299804688	44.50830841064453	635.6209106445312	-731.3496704101562	45.67864227294922	732.7752685546875	-884.3471069335938	43.93422317504883	663.623291015625	-618.3947143554688	770.3129272460938	412.932861328125	-641.0281982421875	745.16259765625	810.26513671875	-710.2145385742188	44.4669303894043	566.9873657226562	
